# Blender 3.5.0
# www.blender.org
mtllib nightsky.mtl
o Sky
v 100.000000 100.000008 99.999992
v 100.000000 -99.999992 100.000008
v -100.000000 100.000008 99.999992
v -100.000000 -99.999992 100.000008
v -100.000000 99.999992 -100.000008
v -100.000000 -100.000008 -99.999992
v 100.000000 99.999992 -100.000008
v 100.000000 -100.000008 -99.999992
vn -0.0000 -0.0000 -1.0000
vn 1.0000 -0.0000 -0.0000
vn -0.0000 -0.0000 1.0000
vn -1.0000 -0.0000 -0.0000
vn -0.0000 -1.0000 -0.0000
vn -0.0000 1.0000 -0.0000
vt 0.000000 1.000000
vt 1.000000 1.000000
vt 0.000000 0.000000
vt 0.000000 0.000000
vt 1.000000 0.000000
vt 0.000000 1.000000
vt 1.000000 1.000000
vt 0.000000 1.000000
vt 1.000000 0.000000
vt 1.000000 0.000000
vt 0.000000 0.000000
vt 1.000000 1.000000
vt 0.000000 1.000000
vt 1.000000 1.000000
vt 0.000000 0.000000
vt 1.000000 0.000000
vt 1.000000 1.000000
vt 0.000000 1.000000
vt 1.000000 0.000000
vt 0.000000 0.000000
s 0
usemtl front
f 2/4/1 4/10/1 3/7/1
f 2/4/1 3/7/1 1/1/1
usemtl right
f 4/11/2 6/16/2 5/14/2
f 4/11/2 5/14/2 3/8/2
usemtl back
f 6/15/3 8/19/3 7/17/3
f 6/15/3 7/17/3 5/13/3
usemtl left
f 8/20/4 2/5/4 1/2/4
f 8/20/4 1/2/4 7/18/4
usemtl up
f 1/3/5 3/9/5 5/14/5
f 1/3/5 5/14/5 7/18/5
usemtl down
f 8/20/6 6/16/6 4/12/6
f 8/20/6 4/12/6 2/6/6
