# Created by Metasequoia

mtllib sky.mtl

v 100.000000 100.000000 100.000000
v 100.000000 -100.000000 100.000000
v -100.000000 100.000000 100.000000
v -100.000000 -100.000000 100.000000
v -100.000000 100.000000 -100.000000
v -100.000000 -100.000000 -100.000000
v 100.000000 100.000000 -100.000000
v 100.000000 -100.000000 -100.000000
# 8 vertices

vt 0.00000 0.00000
vt 1.00000 0.00000
vt 1.00000 1.00000
vt 0.00000 1.00000
# 4 texture vertices

vn -0.00000 0.00000 -1.00000
vn 1.00000 0.00000 0.00000
vn 0.00000 0.00000 1.00000
vn -1.00000 0.00000 0.00000
vn 0.00000 -1.00000 0.00000
vn 0.00000 1.00000 0.00000
# 6 normal vertices

g obj1
usemtl mat5
f 2/1/1 4/2/1 3/3/1
f 2/1/1 3/3/1 1/4/1
usemtl mat1
f 4/1/2 6/2/2 5/3/2
f 4/1/2 5/3/2 3/4/2
usemtl mat2
f 6/1/3 8/2/3 7/3/3
f 6/1/3 7/3/3 5/4/3
usemtl mat4
f 8/1/4 2/2/4 1/3/4
f 8/1/4 1/3/4 7/4/4
usemtl mat3
f 1/1/5 3/2/5 5/3/5
f 1/1/5 5/3/5 7/4/5
usemtl mat6
f 8/1/6 6/2/6 4/3/6
f 8/1/6 4/3/6 2/4/6
# 12 elements

