# Blender 3.5.0
# www.blender.org
mtllib testField3.mtl
o Plane
v -30.000000 0.000000 30.000000
v 30.000000 0.000000 30.000000
v -30.000000 0.000000 -30.000000
v 30.000000 0.000000 -30.000000
vn -0.0000 1.0000 -0.0000
vt 0.000000 0.000000
vt 1.000000 0.000000
vt 0.000000 1.000000
vt 1.000000 1.000000
s 0
usemtl yuka
f 2/2/1 3/3/1 1/1/1
f 2/2/1 4/4/1 3/3/1
o Cube
v -1.000000 0.010000 -9.000000
v -1.000000 6.010000 -9.000000
v -1.000000 0.010000 -11.000000
v -1.000000 6.010000 -11.000000
v 1.000000 0.010000 -9.000000
v 1.000000 6.010000 -9.000000
v 1.000000 0.010000 -11.000000
v 1.000000 6.010000 -11.000000
vn -1.0000 -0.0000 -0.0000
vn -0.0000 -0.0000 -1.0000
vn 1.0000 -0.0000 -0.0000
vn -0.0000 -0.0000 1.0000
vn -0.0000 -1.0000 -0.0000
vn -0.0000 1.0000 -0.0000
vt 0.375000 0.000000
vt 0.375000 1.000000
vt 0.125000 0.750000
vt 0.625000 0.000000
vt 0.625000 1.000000
vt 0.875000 0.750000
vt 0.125000 0.500000
vt 0.375000 0.250000
vt 0.625000 0.250000
vt 0.875000 0.500000
vt 0.375000 0.750000
vt 0.625000 0.750000
vt 0.375000 0.500000
vt 0.625000 0.500000
s 0
usemtl tou
f 6/8/2 7/12/2 5/5/2
f 8/13/3 11/17/3 7/12/3
f 12/18/4 9/15/4 11/17/4
f 10/16/5 5/6/5 9/15/5
f 11/17/6 5/7/6 7/11/6
f 8/14/7 10/16/7 12/18/7
f 6/8/2 8/13/2 7/12/2
f 8/13/3 12/18/3 11/17/3
f 12/18/4 10/16/4 9/15/4
f 10/16/5 6/9/5 5/6/5
f 11/17/6 9/15/6 5/7/6
f 8/14/7 6/10/7 10/16/7
o Cube.001
v -11.000000 0.010000 10.000000
v -11.000000 20.010000 10.000000
v -11.000000 0.010000 -10.000000
v -11.000000 20.010000 -10.000000
v -9.000000 0.010000 10.000000
v -9.000000 20.010000 10.000000
v -9.000000 0.010000 -10.000000
v -9.000000 20.010000 -10.000000
vn -1.0000 -0.0000 -0.0000
vn -0.0000 -0.0000 -1.0000
vn 1.0000 -0.0000 -0.0000
vn -0.0000 -0.0000 1.0000
vn -0.0000 -1.0000 -0.0000
vn -0.0000 1.0000 -0.0000
vt 0.375000 0.000000
vt 0.375000 1.000000
vt 0.125000 0.750000
vt 0.625000 0.000000
vt 0.625000 1.000000
vt 0.875000 0.750000
vt 0.125000 0.500000
vt 0.375000 0.250000
vt 0.625000 0.250000
vt 0.875000 0.500000
vt 0.375000 0.750000
vt 0.625000 0.750000
vt 0.375000 0.500000
vt 0.625000 0.500000
s 0
usemtl kabe
f 14/22/8 15/26/8 13/19/8
f 16/27/9 19/31/9 15/26/9
f 20/32/10 17/29/10 19/31/10
f 18/30/11 13/20/11 17/29/11
f 19/31/12 13/21/12 15/25/12
f 16/28/13 18/30/13 20/32/13
f 14/22/8 16/27/8 15/26/8
f 16/27/9 20/32/9 19/31/9
f 20/32/10 18/30/10 17/29/10
f 18/30/11 14/23/11 13/20/11
f 19/31/12 17/29/12 13/21/12
f 16/28/13 14/24/13 18/30/13
