# Blender 3.5.0
# www.blender.org
mtllib BuleStage.mtl
o Cube
v -5.000000 -0.999998 25.000000
v 5.000000 -0.999998 25.000000
v -5.000000 0.000002 25.000000
v 5.000000 0.000002 25.000000
v -5.000000 -0.000002 -25.000000
v 5.000000 -0.000002 -25.000000
v -5.000000 -1.000002 -25.000000
v 5.000000 -1.000002 -25.000000
vn -0.0000 -0.0000 1.0000
vn -0.0000 1.0000 -0.0000
vn -0.0000 -0.0000 -1.0000
vn -0.0000 -1.0000 -0.0000
vn 1.0000 -0.0000 -0.0000
vn -1.0000 -0.0000 -0.0000
vt 0.000000 0.000000
vt 0.000000 1.000000
vt 1.000000 0.000000
vt 1.000000 0.000000
vt 1.000000 1.000000
vt 0.000000 0.000000
vt 0.000000 1.000000
vt 0.000000 0.000000
vt 1.000000 1.000000
vt 1.000000 1.000000
vt 1.000000 0.000000
vt 0.000000 1.000000
vt 0.000000 0.000000
vt 0.000000 1.000000
vt 1.000000 0.000000
vt 1.000000 1.000000
vt 0.000000 1.000000
vt 0.000000 0.000000
vt 1.000000 1.000000
vt 1.000000 0.000000
s 1
usemtl bule
f 1/1/1 4/10/1 3/7/1
f 1/1/1 2/4/1 4/10/1
f 3/8/2 6/16/2 5/14/2
f 3/8/2 4/11/2 6/16/2
f 5/13/3 8/19/3 7/17/3
f 5/13/3 6/15/3 8/19/3
f 7/18/4 2/5/4 1/2/4
f 7/18/4 8/20/4 2/5/4
f 2/6/5 6/16/5 4/12/5
f 2/6/5 8/20/5 6/16/5
f 7/18/6 3/9/6 5/14/6
f 7/18/6 1/3/6 3/9/6
o Cube.001
v -1.000000 0.000000 -9.700000
v -1.000000 2.000000 -9.700000
v -1.000000 0.000000 -10.300000
v -1.000000 2.000000 -10.300000
v 1.000000 0.000000 -9.700000
v 1.000000 2.000000 -9.700000
v 1.000000 0.000000 -10.300000
v 1.000000 2.000000 -10.300000
vn -1.0000 -0.0000 -0.0000
vn -0.0000 -0.0000 -1.0000
vn 1.0000 -0.0000 -0.0000
vn -0.0000 -0.0000 1.0000
vn -0.0000 -1.0000 -0.0000
vn -0.0000 1.0000 -0.0000
vt 0.375000 0.000000
vt 0.375000 1.000000
vt 0.125000 0.750000
vt 0.625000 0.000000
vt 0.625000 1.000000
vt 0.875000 0.750000
vt 0.125000 0.500000
vt 0.375000 0.250000
vt 0.625000 0.250000
vt 0.875000 0.500000
vt 0.375000 0.750000
vt 0.625000 0.750000
vt 0.375000 0.500000
vt 0.625000 0.500000
s 0
f 10/24/7 11/28/7 9/21/7
f 12/29/8 15/33/8 11/28/8
f 16/34/9 13/31/9 15/33/9
f 14/32/10 9/22/10 13/31/10
f 15/33/11 9/23/11 11/27/11
f 12/30/12 14/32/12 16/34/12
f 10/24/7 12/29/7 11/28/7
f 12/29/8 16/34/8 15/33/8
f 16/34/9 14/32/9 13/31/9
f 14/32/10 10/25/10 9/22/10
f 15/33/11 13/31/11 9/23/11
f 12/30/12 10/26/12 14/32/12
