# Blender 3.5.0
# www.blender.org
mtllib ColorStage.mtl
o tuuro
v -5.000000 -0.999999 12.500000
v 5.000000 -0.999999 12.500000
v -5.000000 0.000001 12.500000
v 5.000000 0.000001 12.500000
v -5.000000 -0.000001 -12.500000
v 5.000000 -0.000001 -12.500000
v -5.000000 -1.000001 -12.500000
v 5.000000 -1.000001 -12.500000
vn -0.0000 -0.0000 1.0000
vn -0.0000 1.0000 -0.0000
vn -0.0000 -0.0000 -1.0000
vn -0.0000 -1.0000 -0.0000
vn 1.0000 -0.0000 -0.0000
vn -1.0000 -0.0000 -0.0000
vt 0.000000 0.000000
vt 0.000000 1.000000
vt 1.000000 0.000000
vt 1.000000 0.000000
vt 1.000000 1.000000
vt 0.000000 0.000000
vt 0.000000 1.000000
vt 0.000000 0.000000
vt 1.000000 1.000000
vt 1.000000 1.000000
vt 1.000000 0.000000
vt 0.000000 1.000000
vt 0.000000 0.000000
vt 0.000000 1.000000
vt 1.000000 0.000000
vt 1.000000 1.000000
vt 0.000000 1.000000
vt 0.000000 0.000000
vt 1.000000 1.000000
vt 1.000000 0.000000
s 1
usemtl bule
f 1/1/1 4/10/1 3/7/1
f 1/1/1 2/4/1 4/10/1
f 3/8/2 6/16/2 5/14/2
f 3/8/2 4/11/2 6/16/2
f 5/13/3 8/19/3 7/17/3
f 5/13/3 6/15/3 8/19/3
f 7/18/4 2/5/4 1/2/4
f 7/18/4 8/20/4 2/5/4
f 2/6/5 6/16/5 4/12/5
f 2/6/5 8/20/5 6/16/5
f 7/18/6 3/9/6 5/14/6
f 7/18/6 1/3/6 3/9/6
o Cube.001
v -1.000000 0.000000 -9.700000
v -1.000000 2.000000 -9.700000
v -1.000000 0.000000 -10.300000
v -1.000000 2.000000 -10.300000
v 1.000000 0.000000 -9.700000
v 1.000000 2.000000 -9.700000
v 1.000000 0.000000 -10.300000
v 1.000000 2.000000 -10.300000
vn -1.0000 -0.0000 -0.0000
vn -0.0000 -0.0000 -1.0000
vn 1.0000 -0.0000 -0.0000
vn -0.0000 -0.0000 1.0000
vn -0.0000 -1.0000 -0.0000
vn -0.0000 1.0000 -0.0000
vt 0.375000 0.000000
vt 0.375000 1.000000
vt 0.125000 0.750000
vt 0.625000 0.000000
vt 0.625000 1.000000
vt 0.875000 0.750000
vt 0.125000 0.500000
vt 0.375000 0.250000
vt 0.625000 0.250000
vt 0.875000 0.500000
vt 0.375000 0.750000
vt 0.625000 0.750000
vt 0.375000 0.500000
vt 0.625000 0.500000
s 0
usemtl red
f 10/24/7 11/28/7 9/21/7
f 12/29/8 15/33/8 11/28/8
f 16/34/9 13/31/9 15/33/9
f 14/32/10 9/22/10 13/31/10
f 15/33/11 9/23/11 11/27/11
f 12/30/12 14/32/12 16/34/12
f 10/24/7 12/29/7 11/28/7
f 12/29/8 16/34/8 15/33/8
f 16/34/9 14/32/9 13/31/9
f 14/32/10 10/25/10 9/22/10
f 15/33/11 13/31/11 9/23/11
f 12/30/12 10/26/12 14/32/12
o tuuro.001
v -15.000000 -1.000000 5.000000
v -5.000000 -1.000000 5.000000
v -15.000000 0.000000 5.000000
v -5.000000 0.000000 5.000000
v -15.000000 -0.000000 -5.000000
v -5.000000 -0.000000 -5.000000
v -15.000000 -1.000000 -5.000000
v -5.000000 -1.000000 -5.000000
vn -0.0000 -0.0000 1.0000
vn -0.0000 1.0000 -0.0000
vn -0.0000 -0.0000 -1.0000
vn -0.0000 -1.0000 -0.0000
vn 1.0000 -0.0000 -0.0000
vn -1.0000 -0.0000 -0.0000
vt 0.000000 0.000000
vt 0.000000 1.000000
vt 1.000000 0.000000
vt 1.000000 0.000000
vt 1.000000 1.000000
vt 0.000000 0.000000
vt 0.000000 1.000000
vt 0.000000 0.000000
vt 1.000000 1.000000
vt 1.000000 1.000000
vt 1.000000 0.000000
vt 0.000000 1.000000
vt 0.000000 0.000000
vt 0.000000 1.000000
vt 1.000000 0.000000
vt 1.000000 1.000000
vt 0.000000 1.000000
vt 0.000000 0.000000
vt 1.000000 1.000000
vt 1.000000 0.000000
s 1
usemtl bule
f 17/35/13 20/44/13 19/41/13
f 17/35/13 18/38/13 20/44/13
f 19/42/14 22/50/14 21/48/14
f 19/42/14 20/45/14 22/50/14
f 21/47/15 24/53/15 23/51/15
f 21/47/15 22/49/15 24/53/15
f 23/52/16 18/39/16 17/36/16
f 23/52/16 24/54/16 18/39/16
f 18/40/17 22/50/17 20/46/17
f 18/40/17 24/54/17 22/50/17
f 23/52/18 19/43/18 21/48/18
f 23/52/18 17/37/18 19/43/18
o tuuro.002
v 5.000000 -1.000000 5.000000
v 15.000000 -1.000000 5.000000
v 5.000000 0.000000 5.000000
v 15.000000 0.000000 5.000000
v 5.000000 -0.000000 -5.000000
v 15.000000 -0.000000 -5.000000
v 5.000000 -1.000000 -5.000000
v 15.000000 -1.000000 -5.000000
vn -0.0000 -0.0000 1.0000
vn -0.0000 1.0000 -0.0000
vn -0.0000 -0.0000 -1.0000
vn -0.0000 -1.0000 -0.0000
vn 1.0000 -0.0000 -0.0000
vn -1.0000 -0.0000 -0.0000
vt 0.000000 0.000000
vt 0.000000 1.000000
vt 1.000000 0.000000
vt 1.000000 0.000000
vt 1.000000 1.000000
vt 0.000000 0.000000
vt 0.000000 1.000000
vt 0.000000 0.000000
vt 1.000000 1.000000
vt 1.000000 1.000000
vt 1.000000 0.000000
vt 0.000000 1.000000
vt 0.000000 0.000000
vt 0.000000 1.000000
vt 1.000000 0.000000
vt 1.000000 1.000000
vt 0.000000 1.000000
vt 0.000000 0.000000
vt 1.000000 1.000000
vt 1.000000 0.000000
s 1
usemtl bule
f 25/55/19 28/64/19 27/61/19
f 25/55/19 26/58/19 28/64/19
f 27/62/20 30/70/20 29/68/20
f 27/62/20 28/65/20 30/70/20
f 29/67/21 32/73/21 31/71/21
f 29/67/21 30/69/21 32/73/21
f 31/72/22 26/59/22 25/56/22
f 31/72/22 32/74/22 26/59/22
f 26/60/23 30/70/23 28/66/23
f 26/60/23 32/74/23 30/70/23
f 31/72/24 27/63/24 29/68/24
f 31/72/24 25/57/24 27/63/24
o yuka
v -10.000000 -0.999999 -12.500000
v 10.000000 -0.999999 -12.500000
v -10.000000 0.000001 -12.500000
v 10.000000 0.000001 -12.500000
v -10.000000 -0.000001 -32.500000
v 10.000000 -0.000001 -32.500000
v -10.000000 -1.000001 -32.500000
v 10.000000 -1.000001 -32.500000
vn -0.0000 -0.0000 1.0000
vn -0.0000 1.0000 -0.0000
vn -0.0000 -0.0000 -1.0000
vn -0.0000 -1.0000 -0.0000
vn 1.0000 -0.0000 -0.0000
vn -1.0000 -0.0000 -0.0000
vt 0.000000 0.000000
vt 0.000000 1.000000
vt 1.000000 0.000000
vt 1.000000 0.000000
vt 1.000000 1.000000
vt 0.000000 0.000000
vt 0.000000 1.000000
vt 0.000000 0.000000
vt 1.000000 1.000000
vt 1.000000 1.000000
vt 1.000000 0.000000
vt 0.000000 1.000000
vt 0.000000 0.000000
vt 0.000000 1.000000
vt 1.000000 0.000000
vt 1.000000 1.000000
vt 0.000000 1.000000
vt 0.000000 0.000000
vt 1.000000 1.000000
vt 1.000000 0.000000
s 1
usemtl White
f 33/75/25 36/84/25 35/81/25
f 33/75/25 34/78/25 36/84/25
f 35/82/26 38/90/26 37/88/26
f 35/82/26 36/85/26 38/90/26
f 37/87/27 40/93/27 39/91/27
f 37/87/27 38/89/27 40/93/27
f 39/92/28 34/79/28 33/76/28
f 39/92/28 40/94/28 34/79/28
f 34/80/29 38/90/29 36/86/29
f 34/80/29 40/94/29 38/90/29
f 39/92/30 35/83/30 37/88/30
f 39/92/30 33/77/30 35/83/30
o kabe
v -5.000000 0.000000 -26.500000
v 5.000000 0.000000 -26.500000
v -5.000000 10.000000 -26.500000
v 5.000000 10.000000 -26.500000
v -5.000000 10.000000 -27.500000
v 5.000000 10.000000 -27.500000
v -5.000000 0.000000 -27.500000
v 5.000000 0.000000 -27.500000
vn -0.0000 -0.0000 1.0000
vn -0.0000 1.0000 -0.0000
vn -0.0000 -0.0000 -1.0000
vn -0.0000 -1.0000 -0.0000
vn 1.0000 -0.0000 -0.0000
vn -1.0000 -0.0000 -0.0000
vt 0.000000 0.000000
vt 0.000000 1.000000
vt 1.000000 0.000000
vt 1.000000 0.000000
vt 1.000000 1.000000
vt 0.000000 0.000000
vt 0.000000 1.000000
vt 0.000000 0.000000
vt 1.000000 1.000000
vt 1.000000 1.000000
vt 1.000000 0.000000
vt 0.000000 1.000000
vt 0.000000 0.000000
vt 0.000000 1.000000
vt 1.000000 0.000000
vt 1.000000 1.000000
vt 0.000000 1.000000
vt 0.000000 0.000000
vt 1.000000 1.000000
vt 1.000000 0.000000
s 1
usemtl Material
f 41/95/31 44/104/31 43/101/31
f 41/95/31 42/98/31 44/104/31
f 43/102/32 46/110/32 45/108/32
f 43/102/32 44/105/32 46/110/32
f 45/107/33 48/113/33 47/111/33
f 45/107/33 46/109/33 48/113/33
f 47/112/34 42/99/34 41/96/34
f 47/112/34 48/114/34 42/99/34
f 42/100/35 46/110/35 44/106/35
f 42/100/35 48/114/35 46/110/35
f 47/112/36 43/103/36 45/108/36
f 47/112/36 41/97/36 43/103/36
o kabe.001
v -5.000000 0.000000 -17.500000
v -4.000000 0.000000 -17.500000
v -5.000000 10.000000 -17.500000
v -4.000000 10.000000 -17.500000
v -5.000000 10.000000 -26.500000
v -4.000000 10.000000 -26.500000
v -5.000000 -0.000000 -26.500000
v -4.000000 -0.000000 -26.500000
vn -0.0000 -0.0000 1.0000
vn -0.0000 1.0000 -0.0000
vn -0.0000 -0.0000 -1.0000
vn -0.0000 -1.0000 -0.0000
vn 1.0000 -0.0000 -0.0000
vn -1.0000 -0.0000 -0.0000
vt 0.000000 0.000000
vt 0.000000 1.000000
vt 1.000000 0.000000
vt 1.000000 0.000000
vt 1.000000 1.000000
vt 0.000000 0.000000
vt 0.000000 1.000000
vt 0.000000 0.000000
vt 1.000000 1.000000
vt 1.000000 1.000000
vt 1.000000 0.000000
vt 0.000000 1.000000
vt 0.000000 0.000000
vt 0.000000 1.000000
vt 1.000000 0.000000
vt 1.000000 1.000000
vt 0.000000 1.000000
vt 0.000000 0.000000
vt 1.000000 1.000000
vt 1.000000 0.000000
s 1
usemtl red
f 49/115/37 52/124/37 51/121/37
f 49/115/37 50/118/37 52/124/37
f 51/122/38 54/130/38 53/128/38
f 51/122/38 52/125/38 54/130/38
f 53/127/39 56/133/39 55/131/39
f 53/127/39 54/129/39 56/133/39
f 55/132/40 50/119/40 49/116/40
f 55/132/40 56/134/40 50/119/40
f 50/120/41 54/130/41 52/126/41
f 50/120/41 56/134/41 54/130/41
f 55/132/42 51/123/42 53/128/42
f 55/132/42 49/117/42 51/123/42
o kabe.002
v 4.000000 0.000000 -17.500000
v 5.000000 0.000000 -17.500000
v 4.000000 10.000000 -17.500000
v 5.000000 10.000000 -17.500000
v 4.000000 10.000000 -26.500000
v 5.000000 10.000000 -26.500000
v 4.000000 -0.000000 -26.500000
v 5.000000 -0.000000 -26.500000
vn -0.0000 -0.0000 1.0000
vn -0.0000 1.0000 -0.0000
vn -0.0000 -0.0000 -1.0000
vn -0.0000 -1.0000 -0.0000
vn 1.0000 -0.0000 -0.0000
vn -1.0000 -0.0000 -0.0000
vt 0.000000 0.000000
vt 0.000000 1.000000
vt 1.000000 0.000000
vt 1.000000 0.000000
vt 1.000000 1.000000
vt 0.000000 0.000000
vt 0.000000 1.000000
vt 0.000000 0.000000
vt 1.000000 1.000000
vt 1.000000 1.000000
vt 1.000000 0.000000
vt 0.000000 1.000000
vt 0.000000 0.000000
vt 0.000000 1.000000
vt 1.000000 0.000000
vt 1.000000 1.000000
vt 0.000000 1.000000
vt 0.000000 0.000000
vt 1.000000 1.000000
vt 1.000000 0.000000
s 1
usemtl red
f 57/135/43 60/144/43 59/141/43
f 57/135/43 58/138/43 60/144/43
f 59/142/44 62/150/44 61/148/44
f 59/142/44 60/145/44 62/150/44
f 61/147/45 64/153/45 63/151/45
f 61/147/45 62/149/45 64/153/45
f 63/152/46 58/139/46 57/136/46
f 63/152/46 64/154/46 58/139/46
f 58/140/47 62/150/47 60/146/47
f 58/140/47 64/154/47 62/150/47
f 63/152/48 59/143/48 61/148/48
f 63/152/48 57/137/48 59/143/48
