# Blender 3.5.0
# www.blender.org
mtllib kari.mtl
o Kabe1_2
v 12.499999 10.000003 -0.000000
v 12.499999 0.000000 -0.000002
v -0.000001 10.000003 -0.000000
v -0.000001 0.000000 -0.000002
v 12.499999 -10.000003 -0.000003
v -0.000001 -10.000003 -0.000003
v -12.500001 10.000003 -0.000000
v -12.500001 0.000000 -0.000002
v -12.500001 -10.000003 -0.000003
vn -0.0000 -0.0000 1.0000
vt -50.000000 -50.000000
vt -50.000000 0.000000
vt 0.000000 -50.000000
vt 0.000000 0.000000
vt -50.000000 50.000000
vt 0.000000 50.000000
vt 50.000000 -50.000000
vt 50.000000 0.000000
vt 50.000000 50.000000
s 1
usemtl kabe
f 1/1/1 3/3/1 2/2/1
f 2/2/1 3/3/1 4/4/1
f 2/2/1 4/4/1 5/5/1
f 5/5/1 4/4/1 6/6/1
f 4/4/1 8/8/1 6/6/1
f 6/6/1 8/8/1 9/9/1
f 3/3/1 7/7/1 4/4/1
f 4/4/1 7/7/1 8/8/1
o Yuka1
v 50.000000 -0.000004 -50.000000
v 50.000000 0.000000 -0.000002
v -0.000001 -0.000004 -50.000000
v -0.000001 0.000000 -0.000002
v 50.000000 0.000004 50.000000
v -0.000001 0.000004 50.000000
v -50.000000 -0.000004 -50.000000
v -50.000000 0.000000 -0.000002
v -50.000000 0.000004 50.000000
vn -0.0000 1.0000 -0.0000
vt -50.000000 -50.000000
vt -50.000000 0.000000
vt 0.000000 -50.000000
vt 0.000000 0.000000
vt -50.000000 50.000000
vt 0.000000 50.000000
vt 50.000000 -50.000000
vt 50.000000 0.000000
vt 50.000000 50.000000
s 1
usemtl iro
f 10/10/2 12/12/2 11/11/2
f 11/11/2 12/12/2 13/13/2
f 11/11/2 13/13/2 14/14/2
f 14/14/2 13/13/2 15/15/2
f 13/13/2 17/17/2 15/15/2
f 15/15/2 17/17/2 18/18/2
f 12/12/2 16/16/2 13/13/2
f 13/13/2 16/16/2 17/17/2
o KabeLeft1
v 49.999996 50.000011 -50.000000
v 49.999996 50.000011 -0.000002
v 49.999996 -0.000000 -50.000000
v 50.000000 0.000000 -0.000002
v 50.000000 50.000011 50.000000
v 50.000004 0.000000 50.000000
v 50.000000 -50.000011 -50.000000
v 50.000004 -50.000011 -0.000002
v 50.000004 -50.000011 50.000000
vn -1.0000 -0.0000 -0.0000
vt -50.000000 -50.000000
vt -50.000000 0.000000
vt 0.000000 -50.000000
vt 0.000000 0.000000
vt -50.000000 50.000000
vt 0.000000 50.000000
vt 50.000000 -50.000000
vt 50.000000 0.000000
vt 50.000000 50.000000
s 1
usemtl iro
f 19/19/3 21/21/3 20/20/3
f 20/20/3 21/21/3 22/22/3
f 20/20/3 22/22/3 23/23/3
f 23/23/3 22/22/3 24/24/3
f 22/22/3 26/26/3 24/24/3
f 24/24/3 26/26/3 27/27/3
f 21/21/3 25/25/3 22/22/3
f 22/22/3 25/25/3 26/26/3
o Kabe2_1
v -0.000000 -10.000003 -12.500002
v -0.000000 -0.000001 -12.500002
v -0.000001 -10.000002 -0.000001
v -0.000001 0.000000 -0.000002
v -0.000000 10.000001 -12.500002
v -0.000001 10.000002 -0.000002
v -0.000002 -10.000001 12.499998
v -0.000002 0.000001 12.499998
v -0.000002 10.000003 12.499998
vn -1.0000 -0.0000 -0.0000
vt -50.000000 -50.000000
vt -50.000000 0.000000
vt 0.000000 -50.000000
vt 0.000000 0.000000
vt -50.000000 50.000000
vt 0.000000 50.000000
vt 50.000000 -50.000000
vt 50.000000 0.000000
vt 50.000000 50.000000
s 1
usemtl kabe
f 28/28/4 30/30/4 29/29/4
f 29/29/4 30/30/4 31/31/4
f 29/29/4 31/31/4 32/32/4
f 32/32/4 31/31/4 33/33/4
f 31/31/4 35/35/4 33/33/4
f 33/33/4 35/35/4 36/36/4
f 30/30/4 34/34/4 31/31/4
f 31/31/4 34/34/4 35/35/4
o KabeOku1
v 50.000000 -50.000011 50.000004
v 50.000000 0.000000 50.000000
v -0.000001 -50.000011 50.000004
v -0.000001 0.000000 50.000000
v 50.000000 50.000011 49.999996
v -0.000001 50.000011 49.999996
v -50.000000 -50.000011 50.000004
v -50.000000 0.000000 50.000000
v -50.000000 50.000011 49.999996
vn -0.0000 -0.0000 -1.0000
vt -50.000000 -50.000000
vt -50.000000 0.000000
vt 0.000000 -50.000000
vt 0.000000 0.000000
vt -50.000000 50.000000
vt 0.000000 50.000000
vt 50.000000 -50.000000
vt 50.000000 0.000000
vt 50.000000 50.000000
s 1
usemtl iro
f 37/37/5 39/39/5 38/38/5
f 38/38/5 39/39/5 40/40/5
f 38/38/5 40/40/5 41/41/5
f 41/41/5 40/40/5 42/42/5
f 40/40/5 44/44/5 42/42/5
f 42/42/5 44/44/5 45/45/5
f 39/39/5 43/43/5 40/40/5
f 40/40/5 43/43/5 44/44/5
o Kabe2_2
v -0.000001 9.999999 12.499998
v -0.000002 -0.000001 12.499998
v -0.000000 10.000000 -0.000001
v -0.000001 0.000000 -0.000002
v -0.000003 -10.000001 12.499998
v -0.000002 -10.000000 -0.000002
v 0.000001 10.000001 -12.500002
v -0.000000 0.000001 -12.500002
v -0.000001 -9.999999 -12.500002
vn 1.0000 -0.0000 -0.0000
vt -50.000000 -50.000000
vt -50.000000 0.000000
vt 0.000000 -50.000000
vt 0.000000 0.000000
vt -50.000000 50.000000
vt 0.000000 50.000000
vt 50.000000 -50.000000
vt 50.000000 0.000000
vt 50.000000 50.000000
s 1
usemtl kabe
f 46/46/6 47/47/6 48/48/6
f 47/47/6 49/49/6 48/48/6
f 47/47/6 50/50/6 49/49/6
f 50/50/6 51/51/6 49/49/6
f 49/49/6 51/51/6 53/53/6
f 51/51/6 54/54/6 53/53/6
f 48/48/6 49/49/6 52/52/6
f 49/49/6 53/53/6 52/52/6
o KabeRight1
v -50.000000 -50.000011 -50.000000
v -50.000004 -50.000011 -0.000002
v -49.999996 -0.000000 -50.000000
v -50.000000 0.000000 -0.000002
v -50.000004 -50.000011 50.000000
v -50.000004 0.000000 50.000000
v -49.999996 50.000011 -50.000000
v -49.999996 50.000011 -0.000002
v -50.000000 50.000011 50.000000
vn 1.0000 -0.0000 -0.0000
vt -50.000000 -50.000000
vt -50.000000 0.000000
vt 0.000000 -50.000000
vt 0.000000 0.000000
vt -50.000000 50.000000
vt 0.000000 50.000000
vt 50.000000 -50.000000
vt 50.000000 0.000000
vt 50.000000 50.000000
s 1
usemtl iro
f 55/55/7 57/57/7 56/56/7
f 56/56/7 57/57/7 58/58/7
f 56/56/7 58/58/7 59/59/7
f 59/59/7 58/58/7 60/60/7
f 58/58/7 62/62/7 60/60/7
f 60/60/7 62/62/7 63/63/7
f 57/57/7 61/61/7 58/58/7
f 58/58/7 61/61/7 62/62/7
o Kabe1_1
v 12.499999 -10.000003 -0.000001
v 12.499999 0.000000 -0.000002
v -0.000001 -10.000003 -0.000001
v -0.000001 0.000000 -0.000002
v 12.499999 10.000003 -0.000002
v -0.000001 10.000003 -0.000002
v -12.500001 -10.000003 -0.000001
v -12.500001 0.000000 -0.000002
v -12.500001 10.000003 -0.000002
vn -0.0000 -0.0000 -1.0000
vt -50.000000 -50.000000
vt -50.000000 0.000000
vt 0.000000 -50.000000
vt 0.000000 0.000000
vt -50.000000 50.000000
vt 0.000000 50.000000
vt 50.000000 -50.000000
vt 50.000000 0.000000
vt 50.000000 50.000000
s 1
usemtl kabe
f 64/64/8 66/66/8 65/65/8
f 65/65/8 66/66/8 67/67/8
f 65/65/8 67/67/8 68/68/8
f 68/68/8 67/67/8 69/69/8
f 67/67/8 71/71/8 69/69/8
f 69/69/8 71/71/8 72/72/8
f 66/66/8 70/70/8 67/67/8
f 67/67/8 70/70/8 71/71/8
o KabeTemae1
v 50.000000 50.000011 -49.999992
v 50.000000 0.000000 -50.000000
v -0.000001 50.000011 -49.999992
v -0.000001 0.000000 -50.000000
v 50.000000 -50.000011 -50.000008
v -0.000001 -50.000011 -50.000008
v -50.000000 50.000011 -49.999992
v -50.000000 0.000000 -50.000000
v -50.000000 -50.000011 -50.000008
vn -0.0000 -0.0000 1.0000
vt -50.000000 -50.000000
vt -50.000000 0.000000
vt 0.000000 -50.000000
vt 0.000000 0.000000
vt -50.000000 50.000000
vt 0.000000 50.000000
vt 50.000000 -50.000000
vt 50.000000 0.000000
vt 50.000000 50.000000
s 1
usemtl ProBuilderDefault.002
f 73/73/9 75/75/9 74/74/9
f 74/74/9 75/75/9 76/76/9
f 74/74/9 76/76/9 77/77/9
f 77/77/9 76/76/9 78/78/9
f 76/76/9 80/80/9 78/78/9
f 78/78/9 80/80/9 81/81/9
f 75/75/9 79/79/9 76/76/9
f 76/76/9 79/79/9 80/80/9
o Yane1
v 49.999996 30.000000 50.000000
v 50.000000 30.000004 0.000002
v -0.000005 29.999996 50.000000
v -0.000001 30.000000 -0.000002
v 50.000004 30.000008 -50.000000
v 0.000003 30.000004 -50.000000
v -50.000004 29.999992 49.999992
v -50.000000 29.999996 -0.000006
v -49.999996 30.000000 -50.000008
vn -0.0000 -1.0000 -0.0000
vt -50.000000 -50.000000
vt -50.000000 0.000000
vt 0.000000 -50.000000
vt 0.000000 0.000000
vt -50.000000 50.000000
vt 0.000000 50.000000
vt 50.000000 -50.000000
vt 50.000000 0.000000
vt 50.000000 50.000000
s 1
usemtl iro
f 82/82/10 84/84/10 83/83/10
f 83/83/10 84/84/10 85/85/10
f 83/83/10 85/85/10 86/86/10
f 86/86/10 85/85/10 87/87/10
f 85/85/10 89/89/10 87/87/10
f 87/87/10 89/89/10 90/90/10
f 84/84/10 88/88/10 85/85/10
f 85/85/10 88/88/10 89/89/10
o Kabe2_2.001
v 6.309341 9.999999 9.010670
v 6.309340 -0.000000 9.010670
v 0.000000 10.000000 -0.000002
v -0.000001 0.000000 -0.000002
v 6.309339 -10.000001 9.010670
v -0.000002 -10.000000 -0.000002
v -6.309341 10.000001 -9.010674
v -6.309342 0.000000 -9.010674
v -6.309343 -9.999999 -9.010674
vn 0.8192 -0.0000 -0.5736
vt -50.000000 -50.000000
vt -50.000000 0.000000
vt 0.000000 -50.000000
vt 0.000000 0.000000
vt -50.000000 50.000000
vt 0.000000 50.000000
vt 50.000000 -50.000000
vt 50.000000 0.000000
vt 50.000000 50.000000
s 1
usemtl kabe.001
f 91/91/11 92/92/11 93/93/11
f 92/92/11 94/94/11 93/93/11
f 92/92/11 95/95/11 94/94/11
f 95/95/11 96/96/11 94/94/11
f 94/94/11 96/96/11 98/98/11
f 96/96/11 99/99/11 98/98/11
f 93/93/11 94/94/11 97/97/11
f 94/94/11 98/98/11 97/97/11
o Kabe2_1.001
v -6.309341 -10.000001 -9.010674
v -6.309342 -0.000000 -9.010674
v -0.000001 -10.000000 -0.000002
v -0.000001 0.000000 -0.000002
v -6.309342 9.999999 -9.010674
v -0.000001 10.000000 -0.000002
v 6.309340 -9.999999 9.010670
v 6.309340 0.000000 9.010670
v 6.309340 10.000001 9.010670
vn -0.8192 -0.0000 0.5736
vt -50.000000 -50.000000
vt -50.000000 0.000000
vt 0.000000 -50.000000
vt 0.000000 0.000000
vt -50.000000 50.000000
vt 0.000000 50.000000
vt 50.000000 -50.000000
vt 50.000000 0.000000
vt 50.000000 50.000000
s 1
usemtl kabe.001
f 100/100/12 102/102/12 101/101/12
f 101/101/12 102/102/12 103/103/12
f 101/101/12 103/103/12 104/104/12
f 104/104/12 103/103/12 105/105/12
f 103/103/12 107/107/12 105/105/12
f 105/105/12 107/107/12 108/108/12
f 102/102/12 106/106/12 103/103/12
f 103/103/12 106/106/12 107/107/12
o Kabe1_2.001
v 7.778174 10.000000 -7.778175
v 7.778173 0.000000 -7.778176
v 0.000000 10.000000 -0.000001
v -0.000001 0.000000 -0.000002
v 7.778172 -10.000000 -7.778177
v -0.000002 -10.000000 -0.000003
v -7.778174 10.000000 7.778173
v -7.778175 0.000000 7.778172
v -7.778176 -10.000000 7.778172
vn 0.7071 -0.0000 0.7071
vt -50.000000 -50.000000
vt -50.000000 0.000000
vt 0.000000 -50.000000
vt 0.000000 0.000000
vt -50.000000 50.000000
vt 0.000000 50.000000
vt 50.000000 -50.000000
vt 50.000000 0.000000
vt 50.000000 50.000000
s 1
usemtl kabe.001
f 109/109/13 111/111/13 110/110/13
f 110/110/13 111/111/13 112/112/13
f 110/110/13 112/112/13 113/113/13
f 113/113/13 112/112/13 114/114/13
f 112/112/13 116/116/13 114/114/13
f 114/114/13 116/116/13 117/117/13
f 111/111/13 115/115/13 112/112/13
f 112/112/13 115/115/13 116/116/13
o Kabe1_1.001
v 7.778174 -10.000003 -7.778176
v 7.778173 0.000000 -7.778176
v -0.000001 -10.000003 -0.000002
v -0.000001 0.000000 -0.000002
v 7.778173 10.000003 -7.778177
v -0.000001 10.000003 -0.000002
v -7.778175 -10.000003 7.778173
v -7.778175 0.000000 7.778172
v -7.778176 10.000003 7.778172
vn -0.7071 -0.0000 -0.7071
vt -50.000000 -50.000000
vt -50.000000 0.000000
vt 0.000000 -50.000000
vt 0.000000 0.000000
vt -50.000000 50.000000
vt 0.000000 50.000000
vt 50.000000 -50.000000
vt 50.000000 0.000000
vt 50.000000 50.000000
s 1
usemtl kabe.001
f 118/118/14 120/120/14 119/119/14
f 119/119/14 120/120/14 121/121/14
f 119/119/14 121/121/14 122/122/14
f 122/122/14 121/121/14 123/123/14
f 121/121/14 125/125/14 123/123/14
f 123/123/14 125/125/14 126/126/14
f 120/120/14 124/124/14 121/121/14
f 121/121/14 124/124/14 125/125/14
